<svg xmlns="http://www.w3.org/2000/svg" viewBox="0 0 1200 630" role="img" aria-label="Aliam agentes em operacao">
  <defs>
    <linearGradient id="bg" x1="0" x2="1" y1="0" y2="1">
      <stop stop-color="#050a18"/>
      <stop offset=".58" stop-color="#08122a"/>
      <stop offset="1" stop-color="#050a18"/>
    </linearGradient>
    <linearGradient id="violet" x1="0" x2="1" y1="0" y2="1">
      <stop stop-color="#c3a6ff"/>
      <stop offset="1" stop-color="#8b5cff"/>
    </linearGradient>
    <filter id="glow" x="-70%" y="-70%" width="240%" height="240%">
      <feGaussianBlur stdDeviation="12" result="blur"/>
      <feMerge>
        <feMergeNode in="blur"/>
        <feMergeNode in="SourceGraphic"/>
      </feMerge>
    </filter>
  </defs>
  <rect width="1200" height="630" fill="url(#bg)"/>
  <g opacity=".14" fill="none" stroke="#9b74ff" stroke-width="2">
    <path d="M52 430c130-72 196 58 326-12 110-60 170-42 238 10"/>
    <path d="M60 496c150-88 240 54 372-12 112-56 176-40 260 16"/>
    <path d="M566 388c86-60 142-70 230-4 58 44 126 36 206-20"/>
    <path d="M612 456c96-70 156-76 242-10 60 46 136 38 230-22"/>
  </g>
  <g transform="translate(72 72)">
    <text x="0" y="86" fill="#ffffff" font-family="DM Sans, Arial, sans-serif" font-size="82" font-weight="800">Rotina repetitiva,</text>
    <text x="0" y="176" fill="#ffffff" font-family="DM Sans, Arial, sans-serif" font-size="82" font-weight="800">resolvida<tspan fill="#9b74ff">.</tspan></text>
    <text x="2" y="236" fill="#c5c8d4" font-family="DM Sans, Arial, sans-serif" font-size="28">Agentes da Aliam assumem o operacional</text>
    <text x="2" y="276" fill="#b18cff" font-family="DM Sans, Arial, sans-serif" font-size="28" font-weight="700">e fazem o fluxo rodar direito.</text>
  </g>
  <g transform="translate(90 390)" font-family="DM Sans, Arial, sans-serif" font-size="22" fill="#ffffff">
    <g opacity=".78">
      <rect x="0" y="0" width="178" height="58" rx="8" fill="#111a33" stroke="#27345a"/>
      <text x="58" y="37">cobranca</text>
      <path d="M26 18h22v26H26zM32 24h10M32 34h10" fill="none" stroke="#c5c8d4" stroke-width="2"/>
    </g>
    <g opacity=".78" transform="translate(0 76)">
      <rect x="0" y="0" width="178" height="58" rx="8" fill="#111a33" stroke="#27345a"/>
      <text x="58" y="37">agenda</text>
      <path d="M26 20h24v22H26zM31 15v10M45 15v10M26 28h24" fill="none" stroke="#c5c8d4" stroke-width="2"/>
    </g>
    <g opacity=".78" transform="translate(0 152)">
      <rect x="0" y="0" width="178" height="58" rx="8" fill="#111a33" stroke="#27345a"/>
      <text x="58" y="37">follow-up</text>
      <path d="M27 20h22v16H34l-7 7V20z" fill="none" stroke="#c5c8d4" stroke-width="2"/>
    </g>
  </g>
  <g transform="translate(490 350)">
    <circle cx="110" cy="110" r="86" fill="#9b74ff" opacity=".12"/>
    <circle cx="110" cy="110" r="62" fill="#10182f" stroke="#9b74ff" stroke-width="3" filter="url(#glow)"/>
    <path d="M74 142 104 74c2.6-6 9.8-6 12.4 0L146 142" fill="none" stroke="url(#violet)" stroke-width="18" stroke-linecap="round" stroke-linejoin="round"/>
    <path d="M90 136 110 91 130 136" fill="none" stroke="#b79aff" stroke-width="7" stroke-linecap="round" stroke-linejoin="round" opacity=".58"/>
  </g>
  <g transform="translate(840 390)" font-family="DM Sans, Arial, sans-serif" font-size="22" fill="#ffffff">
    <g>
      <rect x="0" y="0" width="206" height="58" rx="8" fill="#111a33" stroke="#3d2f80"/>
      <circle cx="28" cy="29" r="15" fill="#9b74ff"/>
      <path d="m20 29 6 6 12-14" fill="none" stroke="#fff" stroke-width="3" stroke-linecap="round" stroke-linejoin="round"/>
      <text x="64" y="37">cobranca</text>
    </g>
    <g transform="translate(0 76)">
      <rect x="0" y="0" width="206" height="58" rx="8" fill="#111a33" stroke="#3d2f80"/>
      <circle cx="28" cy="29" r="15" fill="#9b74ff"/>
      <path d="m20 29 6 6 12-14" fill="none" stroke="#fff" stroke-width="3" stroke-linecap="round" stroke-linejoin="round"/>
      <text x="64" y="37">agenda</text>
    </g>
    <g transform="translate(0 152)">
      <rect x="0" y="0" width="206" height="58" rx="8" fill="#111a33" stroke="#3d2f80"/>
      <circle cx="28" cy="29" r="15" fill="#9b74ff"/>
      <path d="m20 29 6 6 12-14" fill="none" stroke="#fff" stroke-width="3" stroke-linecap="round" stroke-linejoin="round"/>
      <text x="64" y="37">follow-up</text>
    </g>
  </g>
  <g transform="translate(450 560)">
    <path d="M0 40 22 0c1.7-3 6.1-3 7.8 0l22 40" fill="none" stroke="url(#violet)" stroke-width="10" stroke-linecap="round" stroke-linejoin="round"/>
    <path d="M13 38 26 12 39 38" fill="none" stroke="#b79aff" stroke-width="4" stroke-linecap="round" stroke-linejoin="round" opacity=".58"/>
    <text x="82" y="42" fill="#ffffff" font-family="DM Sans, Arial, sans-serif" font-size="54" font-weight="700">Aliam</text>
  </g>
</svg>
